<?xml version="1.0" encoding="utf-8"?>
<!-- Generator: Adobe Illustrator 15.0.2, SVG Export Plug-In . SVG Version: 6.00 Build 0)  -->
<!DOCTYPE svg PUBLIC "-//W3C//DTD SVG 1.0//EN" "http://www.w3.org/TR/2001/REC-SVG-20010904/DTD/svg10.dtd">
<svg version="1.0" id="Layer_1" xmlns="http://www.w3.org/2000/svg" xmlns:xlink="http://www.w3.org/1999/xlink" x="0px" y="0px"
	 width="40px" height="40px" viewBox="0 0 40 40" enable-background="new 0 0 40 40" xml:space="preserve">
<g>
	<path d="M1.508,20c0,10.401,8.431,18.833,18.833,18.833S39.173,30.4,39.173,20c0-10.401-8.432-18.833-18.833-18.833
		S1.508,9.598,1.508,20"/>
	<path fill="#FFFFFF" d="M26.723,25.545c-1.316-0.807-2.931-0.704-4.121,0.125l-7.586-4.649c0.1-0.721-0.011-1.461-0.336-2.137
		l6.604-5.791c1.379,0.904,3.237,0.835,4.538-0.306c1.563-1.372,1.721-3.751,0.349-5.315c-1.372-1.563-3.752-1.72-5.315-0.349
		c-1.165,1.021-1.546,2.601-1.1,3.987l-0.009-0.009L12.9,17.105c-1.314-0.616-2.922-0.444-4.083,0.574
		c-1.564,1.372-1.72,3.751-0.348,5.315c1.372,1.563,3.751,1.72,5.314,0.349c0.03-0.026,0.051-0.059,0.079-0.084l7.287,4.465
		c-0.455,1.585,0.161,3.339,1.638,4.243c1.772,1.087,4.093,0.53,5.179-1.243C29.053,28.951,28.498,26.631,26.723,25.545"/>
</g>
</svg>
